<svg id="icons" xmlns="http://www.w3.org/2000/svg" viewBox="0 0 48 48"><title>vector-pen-tool</title><g id="vector-pen-tool"><polygon points="46 2 46 8 43 8 40 8 40 2 46 2" fill="#c3cce9"/><polygon points="46.62 39.78 39.62 46.62 37.62 44.62 44.45 37.61 46.62 39.78" fill="#fff"/><circle cx="42.62" cy="23.62" r="2" fill="#2d346a"/><ellipse cx="34" cy="34" rx="0.83" ry="0.84" transform="translate(-14.08 34) rotate(-45)" fill="#fff"/><polygon points="26.62 25.99 26.62 26.62 25.62 25.62 26.62 25.99" fill="#fff"/><polygon points="27 24 27 26.37 26 26 26.37 27 21 27 21 24 21 21 27 21 27 24" fill="#fff"/><polygon points="26.62 26.62 25.99 26.62 25.62 25.62 26.62 26.62" fill="#fff"/><polygon points="8 40 8 46 2 46 2 40 5 40 8 40" fill="#c3cce9"/><circle cx="4.62" cy="23.62" r="2" fill="#2d346a"/><rect x="21" y="21" width="6" height="6" fill="none" stroke="#2d346a" stroke-linecap="round" stroke-linejoin="round" stroke-width="2"/><rect x="40" y="2" width="6" height="6" fill="none" stroke="#2d346a" stroke-linecap="round" stroke-linejoin="round" stroke-width="2"/><path d="M43,8c0,8-8,16-15,16" fill="none" stroke="#2d346a" stroke-linecap="round" stroke-linejoin="round" stroke-width="2"/><rect x="2" y="40" width="6" height="6" fill="none" stroke="#2d346a" stroke-linecap="round" stroke-linejoin="round" stroke-width="2"/><path d="M5,40c0-8,8-16,15-16" fill="none" stroke="#2d346a" stroke-linecap="round" stroke-linejoin="round" stroke-width="2"/><line x1="8" y1="24" x2="21" y2="24" fill="none" stroke="#2d346a" stroke-linecap="round" stroke-linejoin="round" stroke-width="2"/><line x1="27" y1="24" x2="40" y2="24" fill="none" stroke="#2d346a" stroke-linecap="round" stroke-linejoin="round" stroke-width="2"/><path d="M7,24a2,2,0,1,1-2-2A2,2,0,0,1,7,24Z" fill="none" stroke="#2d346a" stroke-linecap="round" stroke-linejoin="round" stroke-width="2"/><path d="M45,24a2,2,0,1,1-2-2A2,2,0,0,1,45,24Z" fill="none" stroke="#2d346a" stroke-linecap="round" stroke-linejoin="round" stroke-width="2"/><path d="M38.15,29,27.46,25a.29.29,0,0,0-.31.48l7.7,7.7a1.17,1.17,0,0,1-1.65,1.65l-7.7-7.7a.29.29,0,0,0-.48.31l4,10.69a2.16,2.16,0,0,0,.82,1l7.41,4.05,6-6-4.05-7.41A2.16,2.16,0,0,0,38.15,29Z" fill="#ffc12e"/><path d="M34,36.18a2.16,2.16,0,1,1,1.51-3.68A2.15,2.15,0,0,1,34,36.18Zm0-2.87a.73.73,0,0,0-.52.21.71.71,0,1,0,1,0A.69.69,0,0,0,34,33.31Z" fill="#2d346a"/><rect x="37.23" y="40.02" width="8.91" height="3.31" transform="translate(-17.26 41.68) rotate(-45)" fill="none" stroke="#2d346a" stroke-linecap="round" stroke-linejoin="round" stroke-width="2"/></g></svg>