<svg id="icons" xmlns="http://www.w3.org/2000/svg" viewBox="0 0 48 48"><title>color-selector-fan</title><g id="color-selector-fan"><path d="M43.85,31.41A2,2,0,0,1,42.73,34L20,44l-.24,0A2,2,0,0,0,20,43V38l9.76-14.16L30,24l7-3.85a2.05,2.05,0,0,1,2.67,1.11Z" fill="#ffc12e"/><path d="M35.08,12.48a2,2,0,0,1,.57,2.81l-5.47,7.94-.42.61L20,38V11l2.83-4.11a2.12,2.12,0,0,1,2.88-.55l.57.37Z" fill="#c3cce9"/><path d="M20,11V43a2,2,0,0,1-2,2H6a2,2,0,0,1-2-2V5A2,2,0,0,1,6,3H18a2,2,0,0,1,2,2Z" fill="#fff"/><path d="M20,44,42.73,34a2,2,0,0,0,1.12-2.63L39.64,21.26A2.05,2.05,0,0,0,37,20.15L30,24" fill="none" stroke="#2d346a" stroke-linecap="round" stroke-linejoin="round" stroke-width="2"/><path d="M35.65,15.29a2,2,0,0,0-.57-2.81l-8.8-5.77-.57-.37a2.12,2.12,0,0,0-2.88.55L20,11V38L30.18,23.23Z" fill="none" stroke="#2d346a" stroke-linecap="round" stroke-linejoin="round" stroke-width="2"/><rect x="4" y="3" width="16" height="42" rx="2" ry="2" fill="none" stroke="#2d346a" stroke-linecap="round" stroke-linejoin="round" stroke-width="2"/><rect x="8" y="9" width="8" height="6" rx="1" ry="1" fill="#e1e7ff"/><rect x="8" y="18" width="8" height="6" rx="1" ry="1" fill="#c3cce9"/><rect x="8" y="27" width="8" height="6" rx="1" ry="1" fill="#ffc12e"/><path d="M14,40a2,2,0,0,0-2.75-1.87,1.94,1.94,0,0,0-1.11,1.1A2,2,0,0,0,12,42,2,2,0,0,0,14,40Z" fill="#2d346a"/></g></svg>