<svg id="icons" xmlns="http://www.w3.org/2000/svg" viewBox="0 0 48 48"><title>knife-tool</title><g id="knife-tool"><path d="M28,32.94l-10.11-10L33.79,7.08a7.2,7.2,0,0,1,10.12,0h0a7.09,7.09,0,0,1,0,10.06Z" fill="#ffc12e"/><path d="M28,32.94l-10.11-10L33.79,7.08a7.2,7.2,0,0,1,10.12,0h0a7.09,7.09,0,0,1,0,10.06Z" fill="none" stroke="#2d346a" stroke-linecap="round" stroke-linejoin="round" stroke-width="2"/><polygon points="11.56 43 2 43 20.06 25.04 25.84 30.79 11.56 43" fill="#c3cce9"/><polygon points="11.56 43 2 43 20.06 25.04 25.84 30.79 11.56 43" fill="none" stroke="#2d346a" stroke-linecap="round" stroke-linejoin="round" stroke-width="2"/><line x1="6" y1="39" x2="16" y2="39" fill="none" stroke="#2d346a" stroke-linecap="round" stroke-linejoin="round" stroke-width="2"/><line x1="10" y1="35" x2="21" y2="35" fill="none" stroke="#2d346a" stroke-linejoin="round" stroke-width="2"/><line x1="14" y1="31" x2="25" y2="31" fill="none" stroke="#2d346a" stroke-linejoin="round" stroke-width="2"/><circle cx="39" cy="12" r="3" fill="#fff"/><circle cx="39" cy="12" r="3" fill="none" stroke="#2d346a" stroke-linecap="round" stroke-linejoin="round" stroke-width="2"/></g></svg>