<svg id="icons" xmlns="http://www.w3.org/2000/svg" viewBox="0 0 48 48"><title>layers</title><g id="layers"><polygon points="6 37 24 28 42 37 24 46 6 37" fill="#ffc12e"/><polyline points="29 30.5 42 37 24 46 6 37 19 30.5" fill="none" stroke="#2d346a" stroke-linecap="round" stroke-linejoin="round" stroke-width="2"/><polygon points="6 24 24 15 42 24 24 33 6 24" fill="#c3cce9"/><polyline points="29 17.5 42 24 24 33 6 24 19 17.5" fill="none" stroke="#2d346a" stroke-linecap="round" stroke-linejoin="round" stroke-width="2"/><polygon points="6 11 24 2 42 11 24 20 6 11" fill="#fff"/><polygon points="6 11 24 2 42 11 24 20 6 11" fill="none" stroke="#2d346a" stroke-linecap="round" stroke-linejoin="round" stroke-width="2"/></g></svg>