<svg id="icons" xmlns="http://www.w3.org/2000/svg" viewBox="0 0 48 48"><title>triangle-ruler</title><g id="triangle-ruler"><polygon points="2 46 46 46 46 2 2 46" fill="#ffc12e"/><polygon points="2 46 46 46 46 2 2 46" fill="none" stroke="#2d346a" stroke-linecap="round" stroke-linejoin="round" stroke-width="2"/><polygon points="37 37 37 21 21 37 37 37" fill="#fff"/><line x1="46" y1="10" x2="42" y2="10" fill="none" stroke="#2d346a" stroke-linejoin="round" stroke-width="2"/><line x1="46" y1="15" x2="42" y2="15" fill="none" stroke="#2d346a" stroke-linejoin="round" stroke-width="2"/><line x1="46" y1="20" x2="42" y2="20" fill="none" stroke="#2d346a" stroke-linejoin="round" stroke-width="2"/><line x1="46" y1="25" x2="42" y2="25" fill="none" stroke="#2d346a" stroke-linejoin="round" stroke-width="2"/><line x1="46" y1="30" x2="42" y2="30" fill="none" stroke="#2d346a" stroke-linejoin="round" stroke-width="2"/><line x1="46" y1="35" x2="42" y2="35" fill="none" stroke="#2d346a" stroke-linejoin="round" stroke-width="2"/><line x1="46" y1="40" x2="42" y2="40" fill="none" stroke="#2d346a" stroke-linejoin="round" stroke-width="2"/><line x1="40" y1="46" x2="40" y2="42" fill="none" stroke="#2d346a" stroke-linejoin="round" stroke-width="2"/><line x1="35" y1="46" x2="35" y2="42" fill="none" stroke="#2d346a" stroke-linejoin="round" stroke-width="2"/><line x1="30" y1="46" x2="30" y2="42" fill="none" stroke="#2d346a" stroke-linejoin="round" stroke-width="2"/><line x1="25" y1="46" x2="25" y2="42" fill="none" stroke="#2d346a" stroke-linejoin="round" stroke-width="2"/><line x1="20" y1="46" x2="20" y2="42" fill="none" stroke="#2d346a" stroke-linejoin="round" stroke-width="2"/><line x1="15" y1="46" x2="15" y2="42" fill="none" stroke="#2d346a" stroke-linejoin="round" stroke-width="2"/><line x1="10" y1="46" x2="10" y2="42" fill="none" stroke="#2d346a" stroke-linejoin="round" stroke-width="2"/></g></svg>