<svg id="icons" xmlns="http://www.w3.org/2000/svg" viewBox="0 0 48 48"><title>vertical-type-tool</title><g id="vertical-type-tool"><polygon points="11 6 11 33 16 33 9 42 2 33 7 33 7 6 11 6" fill="#ffc12e"/><polygon points="11 6 11 33 16 33 9 42 2 33 7 33 7 6 11 6" fill="none" stroke="#2d346a" stroke-linecap="round" stroke-linejoin="round" stroke-width="2"/><polygon points="46 6 18 6 18 14 20 14 23 10 30 10 30 38 24 38 24 42 40 42 40 38 34 38 34 10 41 10 44 14 46 14 46 6" fill="#fff"/><polygon points="46 6 18 6 18 14 20 14 23 10 30 10 30 38 24 38 24 42 40 42 40 38 34 38 34 10 41 10 44 14 46 14 46 6" fill="none" stroke="#2d346a" stroke-linecap="round" stroke-linejoin="round" stroke-width="2"/></g></svg>