<svg id="icons" xmlns="http://www.w3.org/2000/svg" viewBox="0 0 48 48"><title>scissor</title><g id="scissor"><path d="M35,32a7,7,0,1,1-7,7,7.13,7.13,0,0,1,.55-2.74,7,7,0,0,1,4.52-4A6.82,6.82,0,0,1,35,32Zm3,7a3,3,0,1,0-3,3A3,3,0,0,0,38,39Z" fill="#ffc12e"/><path d="M19.73,37.07A6.82,6.82,0,0,1,20,39a7,7,0,1,1-7-7,6.75,6.75,0,0,1,2.35.41A7,7,0,0,1,19.73,37.07ZM16,39a3,3,0,1,0-3,3A3,3,0,0,0,16,39Z" fill="#ffc12e"/><path d="M19.89,26.39l4.42-5.65L39,2a12.7,12.7,0,0,1-1.61,14.39L28.72,26.65l-4.36,5.18L20,37l-.27.07a7,7,0,0,0-4.38-4.66L15.5,32ZM24,26a.5.5,0,1,0,.5-.5A.5.5,0,0,0,24,26Z" fill="#fff"/><path d="M28,36l-3.44-4-.2-.17,4.36-5.18.28.24L33,32l.07.27a7,7,0,0,0-4.52,4Z" fill="#c3cce9"/><path d="M24.31,20.74l-4.42,5.65L19.4,26l-8.27-9.61A12.7,12.7,0,0,1,9.52,2L24,20.5Z" fill="#c3cce9"/><line x1="24.56" y1="32" x2="28" y2="36" fill="none" stroke="#2d346a" stroke-linecap="round" stroke-linejoin="round" stroke-width="2"/><path d="M24,20.5,9.52,2a12.7,12.7,0,0,0,1.61,14.39L19.4,26" fill="none" stroke="#2d346a" stroke-linecap="round" stroke-linejoin="round" stroke-width="2"/><line x1="33" y1="32" x2="29" y2="26.89" fill="none" stroke="#2d346a" stroke-linecap="round" stroke-linejoin="round" stroke-width="2"/><path d="M15.5,32,39,2a12.7,12.7,0,0,1-1.61,14.39L20,37" fill="none" stroke="#2d346a" stroke-linecap="round" stroke-linejoin="round" stroke-width="2"/><path d="M24.5,25.5a.5.5,0,1,1-.5.5.5.5,0,0,1,.5-.5" fill="none" stroke="#2d346a" stroke-miterlimit="10" stroke-width="2"/><circle cx="13" cy="39" r="7" fill="none" stroke="#2d346a" stroke-linecap="round" stroke-linejoin="round" stroke-width="2"/><circle cx="13" cy="39" r="3" fill="none" stroke="#2d346a" stroke-linecap="round" stroke-linejoin="round" stroke-width="2"/><circle cx="35" cy="39" r="7" fill="none" stroke="#2d346a" stroke-linecap="round" stroke-linejoin="round" stroke-width="2"/><circle cx="35" cy="39" r="3" fill="none" stroke="#2d346a" stroke-linecap="round" stroke-linejoin="round" stroke-width="2"/></g></svg>