<svg id="icons" xmlns="http://www.w3.org/2000/svg" viewBox="0 0 48 48"><title>crop-tool</title><g id="crop-tool"><line x1="46" y1="2" x2="2" y2="46" fill="none" stroke="#2d346a" stroke-linecap="round" stroke-linejoin="round" stroke-width="2"/><g id="crop-tool-2" data-name="crop-tool"><polygon points="33 15 33 46 40 46 40 8 2 8 2 15 33 15" fill="#ffc12e"/><polygon points="33 15 33 46 40 46 40 8 2 8 2 15 33 15" fill="none" stroke="#2d346a" stroke-linecap="round" stroke-linejoin="round" stroke-width="2"/><polygon points="15 33 15 2 8 2 8 40 46 40 46 33 15 33" fill="#c3cce9"/><polygon points="15 33 15 2 8 2 8 40 46 40 46 33 15 33" fill="none" stroke="#2d346a" stroke-linecap="round" stroke-linejoin="round" stroke-width="2"/></g></g></svg>